<mxfile host="app.diagrams.net" agent="Mozilla/5.0 (X11; Linux x86_64) AppleWebKit/537.36 (KHTML, like Gecko) Chrome/131.0.0.0 Safari/537.36" version="25.0.3">
  <diagram name="Page-1" id="QstAt_iUv-jLmHuZSIRQ">
    <mxGraphModel dx="1434" dy="1927" grid="1" gridSize="10" guides="1" tooltips="1" connect="1" arrows="1" fold="1" page="1" pageScale="1" pageWidth="850" pageHeight="1100" math="0" shadow="0">
      <root>
        <mxCell id="0" />
        <mxCell id="1" parent="0" />
        <mxCell id="5Migwdwcm8lPXjOvwGc1-4" value="&lt;i&gt;Creature&lt;/i&gt;&lt;div&gt;&lt;i&gt;&amp;lt;&amp;lt;abstract class&amp;gt;&amp;gt;&lt;/i&gt;&lt;/div&gt;" style="swimlane;fontStyle=1;align=center;verticalAlign=top;childLayout=stackLayout;horizontal=1;startSize=50;horizontalStack=0;resizeParent=1;resizeParentMax=0;resizeLast=0;collapsible=1;marginBottom=0;whiteSpace=wrap;html=1;" parent="1" vertex="1">
          <mxGeometry x="200" y="-140" width="390" height="344" as="geometry" />
        </mxCell>
        <mxCell id="JTOicDsAA7wBTVZqYbhQ-10" value="- name: string" style="text;strokeColor=none;fillColor=none;align=left;verticalAlign=top;spacingLeft=4;spacingRight=4;overflow=hidden;rotatable=0;points=[[0,0.5],[1,0.5]];portConstraint=eastwest;whiteSpace=wrap;html=1;" parent="5Migwdwcm8lPXjOvwGc1-4" vertex="1">
          <mxGeometry y="50" width="390" height="26" as="geometry" />
        </mxCell>
        <mxCell id="5Migwdwcm8lPXjOvwGc1-5" value="- health: int" style="text;strokeColor=none;fillColor=none;align=left;verticalAlign=top;spacingLeft=4;spacingRight=4;overflow=hidden;rotatable=0;points=[[0,0.5],[1,0.5]];portConstraint=eastwest;whiteSpace=wrap;html=1;" parent="5Migwdwcm8lPXjOvwGc1-4" vertex="1">
          <mxGeometry y="76" width="390" height="26" as="geometry" />
        </mxCell>
        <mxCell id="JTOicDsAA7wBTVZqYbhQ-28" value="- maxHealth: int" style="text;strokeColor=none;fillColor=none;align=left;verticalAlign=top;spacingLeft=4;spacingRight=4;overflow=hidden;rotatable=0;points=[[0,0.5],[1,0.5]];portConstraint=eastwest;whiteSpace=wrap;html=1;" parent="5Migwdwcm8lPXjOvwGc1-4" vertex="1">
          <mxGeometry y="102" width="390" height="26" as="geometry" />
        </mxCell>
        <mxCell id="5Migwdwcm8lPXjOvwGc1-6" value="" style="line;strokeWidth=1;fillColor=none;align=left;verticalAlign=middle;spacingTop=-1;spacingLeft=3;spacingRight=3;rotatable=0;labelPosition=right;points=[];portConstraint=eastwest;strokeColor=inherit;" parent="5Migwdwcm8lPXjOvwGc1-4" vertex="1">
          <mxGeometry y="128" width="390" height="8" as="geometry" />
        </mxCell>
        <mxCell id="5Migwdwcm8lPXjOvwGc1-7" value="+ Creature(name: string,&amp;nbsp;&lt;span style=&quot;border-color: var(--border-color);&quot;&gt;maxHealth&lt;/span&gt;: int)" style="text;strokeColor=none;fillColor=none;align=left;verticalAlign=top;spacingLeft=4;spacingRight=4;overflow=hidden;rotatable=0;points=[[0,0.5],[1,0.5]];portConstraint=eastwest;whiteSpace=wrap;html=1;" parent="5Migwdwcm8lPXjOvwGc1-4" vertex="1">
          <mxGeometry y="136" width="390" height="26" as="geometry" />
        </mxCell>
        <mxCell id="JTOicDsAA7wBTVZqYbhQ-19" value="+ decreaseHealth(amount: int): void" style="text;strokeColor=none;fillColor=none;align=left;verticalAlign=top;spacingLeft=4;spacingRight=4;overflow=hidden;rotatable=0;points=[[0,0.5],[1,0.5]];portConstraint=eastwest;whiteSpace=wrap;html=1;" parent="5Migwdwcm8lPXjOvwGc1-4" vertex="1">
          <mxGeometry y="162" width="390" height="26" as="geometry" />
        </mxCell>
        <mxCell id="JTOicDsAA7wBTVZqYbhQ-27" value="+ isAlive(): bool" style="text;strokeColor=none;fillColor=none;align=left;verticalAlign=top;spacingLeft=4;spacingRight=4;overflow=hidden;rotatable=0;points=[[0,0.5],[1,0.5]];portConstraint=eastwest;whiteSpace=wrap;html=1;" parent="5Migwdwcm8lPXjOvwGc1-4" vertex="1">
          <mxGeometry y="188" width="390" height="26" as="geometry" />
        </mxCell>
        <mxCell id="JTOicDsAA7wBTVZqYbhQ-26" value="+ getHealthPercentage(): int" style="text;strokeColor=none;fillColor=none;align=left;verticalAlign=top;spacingLeft=4;spacingRight=4;overflow=hidden;rotatable=0;points=[[0,0.5],[1,0.5]];portConstraint=eastwest;whiteSpace=wrap;html=1;" parent="5Migwdwcm8lPXjOvwGc1-4" vertex="1">
          <mxGeometry y="214" width="390" height="26" as="geometry" />
        </mxCell>
        <mxCell id="PLBqwa0PCcQ4UnEFB9JK-1" value="&lt;span style=&quot;font-weight: normal;&quot;&gt;+ getMaxHealth(): int&lt;/span&gt;" style="text;strokeColor=none;fillColor=none;align=left;verticalAlign=top;spacingLeft=4;spacingRight=4;overflow=hidden;rotatable=0;points=[[0,0.5],[1,0.5]];portConstraint=eastwest;whiteSpace=wrap;html=1;fontStyle=1" parent="5Migwdwcm8lPXjOvwGc1-4" vertex="1">
          <mxGeometry y="240" width="390" height="26" as="geometry" />
        </mxCell>
        <mxCell id="JTOicDsAA7wBTVZqYbhQ-12" value="&lt;i&gt;+ introduce(): void&lt;/i&gt;" style="text;strokeColor=none;fillColor=none;align=left;verticalAlign=top;spacingLeft=4;spacingRight=4;overflow=hidden;rotatable=0;points=[[0,0.5],[1,0.5]];portConstraint=eastwest;whiteSpace=wrap;html=1;" parent="5Migwdwcm8lPXjOvwGc1-4" vertex="1">
          <mxGeometry y="266" width="390" height="26" as="geometry" />
        </mxCell>
        <mxCell id="Ocg9Glk-y3uKr-0C467c-1" value="&lt;i style=&quot;&quot;&gt;+ toString(): string&lt;/i&gt;" style="text;strokeColor=none;fillColor=none;align=left;verticalAlign=top;spacingLeft=4;spacingRight=4;overflow=hidden;rotatable=0;points=[[0,0.5],[1,0.5]];portConstraint=eastwest;whiteSpace=wrap;html=1;" parent="5Migwdwcm8lPXjOvwGc1-4" vertex="1">
          <mxGeometry y="292" width="390" height="26" as="geometry" />
        </mxCell>
        <mxCell id="5Migwdwcm8lPXjOvwGc1-8" value="&lt;i style=&quot;&quot;&gt;&lt;span style=&quot;font-weight: normal;&quot;&gt;+ attack(&lt;/span&gt;&lt;span style=&quot;font-weight: 400;&quot;&gt;opponent&lt;/span&gt;&lt;span style=&quot;font-weight: normal;&quot;&gt;: Creature*): void&amp;nbsp;&lt;/span&gt;&lt;/i&gt;&lt;i style=&quot;font-weight: 400;&quot;&gt;&amp;lt;&amp;lt;pure virtual&amp;gt;&amp;gt;&lt;/i&gt;" style="text;strokeColor=none;fillColor=none;align=left;verticalAlign=top;spacingLeft=4;spacingRight=4;overflow=hidden;rotatable=0;points=[[0,0.5],[1,0.5]];portConstraint=eastwest;whiteSpace=wrap;html=1;fontStyle=1" parent="5Migwdwcm8lPXjOvwGc1-4" vertex="1">
          <mxGeometry y="318" width="390" height="26" as="geometry" />
        </mxCell>
        <mxCell id="5Migwdwcm8lPXjOvwGc1-18" style="rounded=0;orthogonalLoop=1;jettySize=auto;html=1;endArrow=block;endFill=0;startArrow=none;startFill=0;startSize=13;endSize=13;edgeStyle=orthogonalEdgeStyle;" parent="1" source="5Migwdwcm8lPXjOvwGc1-9" target="5Migwdwcm8lPXjOvwGc1-4" edge="1">
          <mxGeometry relative="1" as="geometry" />
        </mxCell>
        <mxCell id="5Migwdwcm8lPXjOvwGc1-9" value="Human" style="swimlane;fontStyle=1;align=center;verticalAlign=top;childLayout=stackLayout;horizontal=1;startSize=26;horizontalStack=0;resizeParent=1;resizeParentMax=0;resizeLast=0;collapsible=1;marginBottom=0;whiteSpace=wrap;html=1;" parent="1" vertex="1">
          <mxGeometry x="440" y="260" width="340" height="216" as="geometry" />
        </mxCell>
        <mxCell id="5Migwdwcm8lPXjOvwGc1-10" value="- occupation: string" style="text;strokeColor=none;fillColor=none;align=left;verticalAlign=top;spacingLeft=4;spacingRight=4;overflow=hidden;rotatable=0;points=[[0,0.5],[1,0.5]];portConstraint=eastwest;whiteSpace=wrap;html=1;" parent="5Migwdwcm8lPXjOvwGc1-9" vertex="1">
          <mxGeometry y="26" width="340" height="26" as="geometry" />
        </mxCell>
        <mxCell id="5Migwdwcm8lPXjOvwGc1-14" value="- bornYear: int" style="text;strokeColor=none;fillColor=none;align=left;verticalAlign=top;spacingLeft=4;spacingRight=4;overflow=hidden;rotatable=0;points=[[0,0.5],[1,0.5]];portConstraint=eastwest;whiteSpace=wrap;html=1;" parent="5Migwdwcm8lPXjOvwGc1-9" vertex="1">
          <mxGeometry y="52" width="340" height="26" as="geometry" />
        </mxCell>
        <mxCell id="5Migwdwcm8lPXjOvwGc1-11" value="" style="line;strokeWidth=1;fillColor=none;align=left;verticalAlign=middle;spacingTop=-1;spacingLeft=3;spacingRight=3;rotatable=0;labelPosition=right;points=[];portConstraint=eastwest;strokeColor=inherit;" parent="5Migwdwcm8lPXjOvwGc1-9" vertex="1">
          <mxGeometry y="78" width="340" height="8" as="geometry" />
        </mxCell>
        <mxCell id="5Migwdwcm8lPXjOvwGc1-12" value="+ Human(name: string, occupation: string, bornYear: int)" style="text;strokeColor=none;fillColor=none;align=left;verticalAlign=top;spacingLeft=4;spacingRight=4;overflow=hidden;rotatable=0;points=[[0,0.5],[1,0.5]];portConstraint=eastwest;whiteSpace=wrap;html=1;" parent="5Migwdwcm8lPXjOvwGc1-9" vertex="1">
          <mxGeometry y="86" width="340" height="26" as="geometry" />
        </mxCell>
        <mxCell id="5Migwdwcm8lPXjOvwGc1-15" value="+ introduce(): void" style="text;strokeColor=none;fillColor=none;align=left;verticalAlign=top;spacingLeft=4;spacingRight=4;overflow=hidden;rotatable=0;points=[[0,0.5],[1,0.5]];portConstraint=eastwest;whiteSpace=wrap;html=1;" parent="5Migwdwcm8lPXjOvwGc1-9" vertex="1">
          <mxGeometry y="112" width="340" height="26" as="geometry" />
        </mxCell>
        <mxCell id="5Migwdwcm8lPXjOvwGc1-16" value="+ getAge(): int" style="text;strokeColor=none;fillColor=none;align=left;verticalAlign=top;spacingLeft=4;spacingRight=4;overflow=hidden;rotatable=0;points=[[0,0.5],[1,0.5]];portConstraint=eastwest;whiteSpace=wrap;html=1;" parent="5Migwdwcm8lPXjOvwGc1-9" vertex="1">
          <mxGeometry y="138" width="340" height="26" as="geometry" />
        </mxCell>
        <mxCell id="JTOicDsAA7wBTVZqYbhQ-15" value="+ attack(opponent: Creature*)" style="text;strokeColor=none;fillColor=none;align=left;verticalAlign=top;spacingLeft=4;spacingRight=4;overflow=hidden;rotatable=0;points=[[0,0.5],[1,0.5]];portConstraint=eastwest;whiteSpace=wrap;html=1;" parent="5Migwdwcm8lPXjOvwGc1-9" vertex="1">
          <mxGeometry y="164" width="340" height="26" as="geometry" />
        </mxCell>
        <mxCell id="-kpl4KCauYQqRq4dRES8-4" value="+ toString(): string" style="text;strokeColor=none;fillColor=none;align=left;verticalAlign=top;spacingLeft=4;spacingRight=4;overflow=hidden;rotatable=0;points=[[0,0.5],[1,0.5]];portConstraint=eastwest;whiteSpace=wrap;html=1;" parent="5Migwdwcm8lPXjOvwGc1-9" vertex="1">
          <mxGeometry y="190" width="340" height="26" as="geometry" />
        </mxCell>
        <mxCell id="5Migwdwcm8lPXjOvwGc1-38" style="rounded=0;orthogonalLoop=1;jettySize=auto;html=1;startArrow=none;startFill=0;endArrow=block;endFill=0;startSize=13;endSize=13;edgeStyle=orthogonalEdgeStyle;" parent="1" source="5Migwdwcm8lPXjOvwGc1-19" target="5Migwdwcm8lPXjOvwGc1-4" edge="1">
          <mxGeometry relative="1" as="geometry" />
        </mxCell>
        <mxCell id="5Migwdwcm8lPXjOvwGc1-19" value="Bat" style="swimlane;fontStyle=1;align=center;verticalAlign=top;childLayout=stackLayout;horizontal=1;startSize=26;horizontalStack=0;resizeParent=1;resizeParentMax=0;resizeLast=0;collapsible=1;marginBottom=0;whiteSpace=wrap;html=1;" parent="1" vertex="1">
          <mxGeometry x="60" y="260" width="300" height="216" as="geometry" />
        </mxCell>
        <mxCell id="5Migwdwcm8lPXjOvwGc1-20" value="- wingSpan: int" style="text;strokeColor=none;fillColor=none;align=left;verticalAlign=top;spacingLeft=4;spacingRight=4;overflow=hidden;rotatable=0;points=[[0,0.5],[1,0.5]];portConstraint=eastwest;whiteSpace=wrap;html=1;" parent="5Migwdwcm8lPXjOvwGc1-19" vertex="1">
          <mxGeometry y="26" width="300" height="26" as="geometry" />
        </mxCell>
        <mxCell id="5Migwdwcm8lPXjOvwGc1-21" value="- flightSpeed: int" style="text;strokeColor=none;fillColor=none;align=left;verticalAlign=top;spacingLeft=4;spacingRight=4;overflow=hidden;rotatable=0;points=[[0,0.5],[1,0.5]];portConstraint=eastwest;whiteSpace=wrap;html=1;" parent="5Migwdwcm8lPXjOvwGc1-19" vertex="1">
          <mxGeometry y="52" width="300" height="26" as="geometry" />
        </mxCell>
        <mxCell id="5Migwdwcm8lPXjOvwGc1-22" value="" style="line;strokeWidth=1;fillColor=none;align=left;verticalAlign=middle;spacingTop=-1;spacingLeft=3;spacingRight=3;rotatable=0;labelPosition=right;points=[];portConstraint=eastwest;strokeColor=inherit;" parent="5Migwdwcm8lPXjOvwGc1-19" vertex="1">
          <mxGeometry y="78" width="300" height="8" as="geometry" />
        </mxCell>
        <mxCell id="5Migwdwcm8lPXjOvwGc1-23" value="+ Bat(name: string, wingSpan: int, flightSpeed: int)" style="text;strokeColor=none;fillColor=none;align=left;verticalAlign=top;spacingLeft=4;spacingRight=4;overflow=hidden;rotatable=0;points=[[0,0.5],[1,0.5]];portConstraint=eastwest;whiteSpace=wrap;html=1;" parent="5Migwdwcm8lPXjOvwGc1-19" vertex="1">
          <mxGeometry y="86" width="300" height="26" as="geometry" />
        </mxCell>
        <mxCell id="5Migwdwcm8lPXjOvwGc1-24" value="+ introduce(): void" style="text;strokeColor=none;fillColor=none;align=left;verticalAlign=top;spacingLeft=4;spacingRight=4;overflow=hidden;rotatable=0;points=[[0,0.5],[1,0.5]];portConstraint=eastwest;whiteSpace=wrap;html=1;" parent="5Migwdwcm8lPXjOvwGc1-19" vertex="1">
          <mxGeometry y="112" width="300" height="26" as="geometry" />
        </mxCell>
        <mxCell id="5Migwdwcm8lPXjOvwGc1-26" value="+ chanegFlightSpeed(speed: int): void" style="text;strokeColor=none;fillColor=none;align=left;verticalAlign=top;spacingLeft=4;spacingRight=4;overflow=hidden;rotatable=0;points=[[0,0.5],[1,0.5]];portConstraint=eastwest;whiteSpace=wrap;html=1;" parent="5Migwdwcm8lPXjOvwGc1-19" vertex="1">
          <mxGeometry y="138" width="300" height="26" as="geometry" />
        </mxCell>
        <mxCell id="JTOicDsAA7wBTVZqYbhQ-14" value="+ attack(opponent: Creature*)" style="text;strokeColor=none;fillColor=none;align=left;verticalAlign=top;spacingLeft=4;spacingRight=4;overflow=hidden;rotatable=0;points=[[0,0.5],[1,0.5]];portConstraint=eastwest;whiteSpace=wrap;html=1;" parent="5Migwdwcm8lPXjOvwGc1-19" vertex="1">
          <mxGeometry y="164" width="300" height="26" as="geometry" />
        </mxCell>
        <mxCell id="-kpl4KCauYQqRq4dRES8-2" value="+ toString(): string" style="text;strokeColor=none;fillColor=none;align=left;verticalAlign=top;spacingLeft=4;spacingRight=4;overflow=hidden;rotatable=0;points=[[0,0.5],[1,0.5]];portConstraint=eastwest;whiteSpace=wrap;html=1;" parent="5Migwdwcm8lPXjOvwGc1-19" vertex="1">
          <mxGeometry y="190" width="300" height="26" as="geometry" />
        </mxCell>
        <mxCell id="5Migwdwcm8lPXjOvwGc1-36" style="rounded=0;orthogonalLoop=1;jettySize=auto;html=1;startArrow=none;startFill=0;endArrow=block;endFill=0;startSize=13;endSize=13;edgeStyle=orthogonalEdgeStyle;" parent="1" source="5Migwdwcm8lPXjOvwGc1-27" target="5Migwdwcm8lPXjOvwGc1-9" edge="1">
          <mxGeometry relative="1" as="geometry" />
        </mxCell>
        <mxCell id="5Migwdwcm8lPXjOvwGc1-37" style="rounded=0;orthogonalLoop=1;jettySize=auto;html=1;startArrow=none;startFill=0;endArrow=block;endFill=0;startSize=13;endSize=13;edgeStyle=orthogonalEdgeStyle;" parent="1" source="5Migwdwcm8lPXjOvwGc1-27" target="5Migwdwcm8lPXjOvwGc1-19" edge="1">
          <mxGeometry relative="1" as="geometry" />
        </mxCell>
        <mxCell id="5Migwdwcm8lPXjOvwGc1-27" value="Vampire" style="swimlane;fontStyle=1;align=center;verticalAlign=top;childLayout=stackLayout;horizontal=1;startSize=26;horizontalStack=0;resizeParent=1;resizeParentMax=0;resizeLast=0;collapsible=1;marginBottom=0;whiteSpace=wrap;html=1;" parent="1" vertex="1">
          <mxGeometry x="180" y="600" width="430" height="164" as="geometry" />
        </mxCell>
        <mxCell id="5Migwdwcm8lPXjOvwGc1-30" value="" style="line;strokeWidth=1;fillColor=none;align=left;verticalAlign=middle;spacingTop=-1;spacingLeft=3;spacingRight=3;rotatable=0;labelPosition=right;points=[];portConstraint=eastwest;strokeColor=inherit;" parent="5Migwdwcm8lPXjOvwGc1-27" vertex="1">
          <mxGeometry y="26" width="430" height="8" as="geometry" />
        </mxCell>
        <mxCell id="5Migwdwcm8lPXjOvwGc1-31" value="+&amp;nbsp;Vampire(name: string, occupation: string, wingSpan: int, flightSpeed: int)" style="text;strokeColor=none;fillColor=none;align=left;verticalAlign=top;spacingLeft=4;spacingRight=4;overflow=hidden;rotatable=0;points=[[0,0.5],[1,0.5]];portConstraint=eastwest;whiteSpace=wrap;html=1;" parent="5Migwdwcm8lPXjOvwGc1-27" vertex="1">
          <mxGeometry y="34" width="430" height="26" as="geometry" />
        </mxCell>
        <mxCell id="5Migwdwcm8lPXjOvwGc1-32" value="+ introduce(): void" style="text;strokeColor=none;fillColor=none;align=left;verticalAlign=top;spacingLeft=4;spacingRight=4;overflow=hidden;rotatable=0;points=[[0,0.5],[1,0.5]];portConstraint=eastwest;whiteSpace=wrap;html=1;" parent="5Migwdwcm8lPXjOvwGc1-27" vertex="1">
          <mxGeometry y="60" width="430" height="26" as="geometry" />
        </mxCell>
        <mxCell id="5Migwdwcm8lPXjOvwGc1-33" value="+ suckBlood(): void" style="text;strokeColor=none;fillColor=none;align=left;verticalAlign=top;spacingLeft=4;spacingRight=4;overflow=hidden;rotatable=0;points=[[0,0.5],[1,0.5]];portConstraint=eastwest;whiteSpace=wrap;html=1;" parent="5Migwdwcm8lPXjOvwGc1-27" vertex="1">
          <mxGeometry y="86" width="430" height="26" as="geometry" />
        </mxCell>
        <mxCell id="JTOicDsAA7wBTVZqYbhQ-16" value="+ attack(opponent: Creature*)" style="text;strokeColor=none;fillColor=none;align=left;verticalAlign=top;spacingLeft=4;spacingRight=4;overflow=hidden;rotatable=0;points=[[0,0.5],[1,0.5]];portConstraint=eastwest;whiteSpace=wrap;html=1;" parent="5Migwdwcm8lPXjOvwGc1-27" vertex="1">
          <mxGeometry y="112" width="430" height="26" as="geometry" />
        </mxCell>
        <mxCell id="-kpl4KCauYQqRq4dRES8-3" value="+ toString(): string" style="text;strokeColor=none;fillColor=none;align=left;verticalAlign=top;spacingLeft=4;spacingRight=4;overflow=hidden;rotatable=0;points=[[0,0.5],[1,0.5]];portConstraint=eastwest;whiteSpace=wrap;html=1;" parent="5Migwdwcm8lPXjOvwGc1-27" vertex="1">
          <mxGeometry y="138" width="430" height="26" as="geometry" />
        </mxCell>
        <mxCell id="Ocg9Glk-y3uKr-0C467c-2" value="Team" style="swimlane;fontStyle=1;align=center;verticalAlign=top;childLayout=stackLayout;horizontal=1;startSize=26;horizontalStack=0;resizeParent=1;resizeParentMax=0;resizeLast=0;collapsible=1;marginBottom=0;whiteSpace=wrap;html=1;" parent="1" vertex="1">
          <mxGeometry x="820" y="320" width="390" height="216" as="geometry" />
        </mxCell>
        <mxCell id="Ocg9Glk-y3uKr-0C467c-3" value="- creatures:&amp;nbsp;vector&amp;lt;Creature*&amp;gt;" style="text;strokeColor=none;fillColor=none;align=left;verticalAlign=top;spacingLeft=4;spacingRight=4;overflow=hidden;rotatable=0;points=[[0,0.5],[1,0.5]];portConstraint=eastwest;whiteSpace=wrap;html=1;" parent="Ocg9Glk-y3uKr-0C467c-2" vertex="1">
          <mxGeometry y="26" width="390" height="26" as="geometry" />
        </mxCell>
        <mxCell id="Ocg9Glk-y3uKr-0C467c-6" value="" style="line;strokeWidth=1;fillColor=none;align=left;verticalAlign=middle;spacingTop=-1;spacingLeft=3;spacingRight=3;rotatable=0;labelPosition=right;points=[];portConstraint=eastwest;strokeColor=inherit;" parent="Ocg9Glk-y3uKr-0C467c-2" vertex="1">
          <mxGeometry y="52" width="390" height="8" as="geometry" />
        </mxCell>
        <mxCell id="Ocg9Glk-y3uKr-0C467c-8" value="+ add(Creature* creature): void" style="text;strokeColor=none;fillColor=none;align=left;verticalAlign=top;spacingLeft=4;spacingRight=4;overflow=hidden;rotatable=0;points=[[0,0.5],[1,0.5]];portConstraint=eastwest;whiteSpace=wrap;html=1;" parent="Ocg9Glk-y3uKr-0C467c-2" vertex="1">
          <mxGeometry y="60" width="390" height="26" as="geometry" />
        </mxCell>
        <mxCell id="Ocg9Glk-y3uKr-0C467c-15" value="+ getLivingCreatures(): vector&amp;lt;Creature*&amp;gt;" style="text;strokeColor=none;fillColor=none;align=left;verticalAlign=top;spacingLeft=4;spacingRight=4;overflow=hidden;rotatable=0;points=[[0,0.5],[1,0.5]];portConstraint=eastwest;whiteSpace=wrap;html=1;" parent="Ocg9Glk-y3uKr-0C467c-2" vertex="1">
          <mxGeometry y="86" width="390" height="26" as="geometry" />
        </mxCell>
        <mxCell id="Ocg9Glk-y3uKr-0C467c-26" value="+ getDefender(): Creature*" style="text;strokeColor=none;fillColor=none;align=left;verticalAlign=top;spacingLeft=4;spacingRight=4;overflow=hidden;rotatable=0;points=[[0,0.5],[1,0.5]];portConstraint=eastwest;whiteSpace=wrap;html=1;" parent="Ocg9Glk-y3uKr-0C467c-2" vertex="1">
          <mxGeometry y="112" width="390" height="26" as="geometry" />
        </mxCell>
        <mxCell id="Ocg9Glk-y3uKr-0C467c-9" value="+ attack(Team* otherTeam): void" style="text;strokeColor=none;fillColor=none;align=left;verticalAlign=top;spacingLeft=4;spacingRight=4;overflow=hidden;rotatable=0;points=[[0,0.5],[1,0.5]];portConstraint=eastwest;whiteSpace=wrap;html=1;" parent="Ocg9Glk-y3uKr-0C467c-2" vertex="1">
          <mxGeometry y="138" width="390" height="26" as="geometry" />
        </mxCell>
        <mxCell id="Ocg9Glk-y3uKr-0C467c-11" value="+ isAtLeastOneAlivedMember(): bool" style="text;strokeColor=none;fillColor=none;align=left;verticalAlign=top;spacingLeft=4;spacingRight=4;overflow=hidden;rotatable=0;points=[[0,0.5],[1,0.5]];portConstraint=eastwest;whiteSpace=wrap;html=1;" parent="Ocg9Glk-y3uKr-0C467c-2" vertex="1">
          <mxGeometry y="164" width="390" height="26" as="geometry" />
        </mxCell>
        <mxCell id="Ocg9Glk-y3uKr-0C467c-14" value="+ toString(): string" style="text;strokeColor=none;fillColor=none;align=left;verticalAlign=top;spacingLeft=4;spacingRight=4;overflow=hidden;rotatable=0;points=[[0,0.5],[1,0.5]];portConstraint=eastwest;whiteSpace=wrap;html=1;" parent="Ocg9Glk-y3uKr-0C467c-2" vertex="1">
          <mxGeometry y="190" width="390" height="26" as="geometry" />
        </mxCell>
        <mxCell id="Ocg9Glk-y3uKr-0C467c-16" value="Simulation" style="swimlane;fontStyle=1;align=center;verticalAlign=top;childLayout=stackLayout;horizontal=1;startSize=26;horizontalStack=0;resizeParent=1;resizeParentMax=0;resizeLast=0;collapsible=1;marginBottom=0;whiteSpace=wrap;html=1;" parent="1" vertex="1">
          <mxGeometry x="820" y="600" width="390" height="190" as="geometry" />
        </mxCell>
        <mxCell id="Ocg9Glk-y3uKr-0C467c-17" value="- teamA: Team*" style="text;strokeColor=none;fillColor=none;align=left;verticalAlign=top;spacingLeft=4;spacingRight=4;overflow=hidden;rotatable=0;points=[[0,0.5],[1,0.5]];portConstraint=eastwest;whiteSpace=wrap;html=1;" parent="Ocg9Glk-y3uKr-0C467c-16" vertex="1">
          <mxGeometry y="26" width="390" height="26" as="geometry" />
        </mxCell>
        <mxCell id="Ocg9Glk-y3uKr-0C467c-25" value="- teamB: Team*" style="text;strokeColor=none;fillColor=none;align=left;verticalAlign=top;spacingLeft=4;spacingRight=4;overflow=hidden;rotatable=0;points=[[0,0.5],[1,0.5]];portConstraint=eastwest;whiteSpace=wrap;html=1;" parent="Ocg9Glk-y3uKr-0C467c-16" vertex="1">
          <mxGeometry y="52" width="390" height="26" as="geometry" />
        </mxCell>
        <mxCell id="Ocg9Glk-y3uKr-0C467c-18" value="" style="line;strokeWidth=1;fillColor=none;align=left;verticalAlign=middle;spacingTop=-1;spacingLeft=3;spacingRight=3;rotatable=0;labelPosition=right;points=[];portConstraint=eastwest;strokeColor=inherit;" parent="Ocg9Glk-y3uKr-0C467c-16" vertex="1">
          <mxGeometry y="78" width="390" height="8" as="geometry" />
        </mxCell>
        <mxCell id="Ocg9Glk-y3uKr-0C467c-19" value="+&amp;nbsp;Simulation(teamA: Team*, teamB: Team*)" style="text;strokeColor=none;fillColor=none;align=left;verticalAlign=top;spacingLeft=4;spacingRight=4;overflow=hidden;rotatable=0;points=[[0,0.5],[1,0.5]];portConstraint=eastwest;whiteSpace=wrap;html=1;" parent="Ocg9Glk-y3uKr-0C467c-16" vertex="1">
          <mxGeometry y="86" width="390" height="26" as="geometry" />
        </mxCell>
        <mxCell id="Ocg9Glk-y3uKr-0C467c-20" value="+ executeRound(): void" style="text;strokeColor=none;fillColor=none;align=left;verticalAlign=top;spacingLeft=4;spacingRight=4;overflow=hidden;rotatable=0;points=[[0,0.5],[1,0.5]];portConstraint=eastwest;whiteSpace=wrap;html=1;" parent="Ocg9Glk-y3uKr-0C467c-16" vertex="1">
          <mxGeometry y="112" width="390" height="26" as="geometry" />
        </mxCell>
        <mxCell id="Ocg9Glk-y3uKr-0C467c-21" value="+ isOver(): bool" style="text;strokeColor=none;fillColor=none;align=left;verticalAlign=top;spacingLeft=4;spacingRight=4;overflow=hidden;rotatable=0;points=[[0,0.5],[1,0.5]];portConstraint=eastwest;whiteSpace=wrap;html=1;" parent="Ocg9Glk-y3uKr-0C467c-16" vertex="1">
          <mxGeometry y="138" width="390" height="26" as="geometry" />
        </mxCell>
        <mxCell id="-kpl4KCauYQqRq4dRES8-6" value="+ getWinner(): Team*" style="text;strokeColor=none;fillColor=none;align=left;verticalAlign=top;spacingLeft=4;spacingRight=4;overflow=hidden;rotatable=0;points=[[0,0.5],[1,0.5]];portConstraint=eastwest;whiteSpace=wrap;html=1;" parent="Ocg9Glk-y3uKr-0C467c-16" vertex="1">
          <mxGeometry y="164" width="390" height="26" as="geometry" />
        </mxCell>
        <mxCell id="-kpl4KCauYQqRq4dRES8-1" value="&lt;ul&gt;&lt;li style=&quot;text-align: left;&quot;&gt;Nie wiadomo kiedy urodziły sie wampiry, dlatego przyjęto&amp;nbsp;1897r., czyli rok wydania powieści &quot;Drakula&quot; (B. Stoker).&lt;/li&gt;&lt;li style=&quot;text-align: left;&quot;&gt;Siła ataku:&lt;/li&gt;&lt;ul&gt;&lt;li style=&quot;text-align: left;&quot;&gt;Bat = 5&lt;/li&gt;&lt;li style=&quot;text-align: left;&quot;&gt;Human = 10&lt;/li&gt;&lt;li style=&quot;text-align: left;&quot;&gt;Vampire = 10&lt;/li&gt;&lt;ul&gt;&lt;li style=&quot;text-align: left;&quot;&gt;W przypadku atakowania klasy Humna, jeżeli postać ma mniej niż 50% zycia atak wynosi 100&lt;/li&gt;&lt;/ul&gt;&lt;/ul&gt;&lt;li style=&quot;text-align: left;&quot;&gt;Maksymalne życie:&lt;/li&gt;&lt;ul&gt;&lt;li style=&quot;text-align: left;&quot;&gt;Bat = 40&lt;/li&gt;&lt;li style=&quot;text-align: left;&quot;&gt;Human = 100&lt;/li&gt;&lt;li style=&quot;text-align: left;&quot;&gt;Vampire = 1000&lt;/li&gt;&lt;/ul&gt;&lt;li style=&quot;text-align: left;&quot;&gt;&lt;span style=&quot;background-color: initial;&quot;&gt;W kontekście klasy &lt;b&gt;Human &lt;/b&gt;zakładamy, że mamy obecnie 2025 rok.&lt;/span&gt;&lt;/li&gt;&lt;li style=&quot;text-align: left;&quot;&gt;&lt;span style=&quot;background-color: initial;&quot;&gt;Metoda &lt;b&gt;Team::&lt;/b&gt;&lt;/span&gt;&lt;b&gt;getDefender &lt;/b&gt;zwraca pierwszego żyjącego członka drużyny z wektora przechowującego wszystkich członków drużyny.&lt;/li&gt;&lt;li style=&quot;text-align: left;&quot;&gt;Metoda &lt;b&gt;Team::attack &lt;/b&gt;wykonuje atak wszystkich żyjących członków drużyny na członku drużyny przeciwnej zwracanym przez metodę &lt;b&gt;Team::getDefender.&lt;/b&gt;&lt;/li&gt;&lt;li style=&quot;text-align: left;&quot;&gt;&lt;span style=&quot;background-color: initial;&quot;&gt;Wywołanie meotdy&amp;nbsp;&lt;/span&gt;&lt;b style=&quot;background-color: initial;&quot;&gt;introduce&amp;nbsp;&lt;/b&gt;&lt;span style=&quot;background-color: initial;&quot;&gt;musi zostać poprzedzone wywołaniem metody z nadklasy. np. dla obiektu klasy&amp;nbsp;&lt;/span&gt;&lt;b style=&quot;background-color: initial;&quot;&gt;Human&amp;nbsp;&lt;/b&gt;&lt;span style=&quot;background-color: initial;&quot;&gt;zostanie wyołana metoda&amp;nbsp;&lt;/span&gt;&lt;b style=&quot;background-color: initial;&quot;&gt;introduce&lt;/b&gt;&lt;span style=&quot;background-color: initial;&quot;&gt;&amp;nbsp;z klasy&amp;nbsp;&lt;/span&gt;&lt;b style=&quot;background-color: initial;&quot;&gt;Creature,&amp;nbsp;&lt;/b&gt;&lt;span style=&quot;background-color: initial;&quot;&gt;a dopiero potem wypisany komunikat dotyczący człowieka. Będzie to zapsiane np.&amp;nbsp;&lt;/span&gt;&lt;/li&gt;&lt;/ul&gt;&lt;div&gt;&lt;div style=&quot;text-align: left;&quot;&gt;&lt;br&gt;&lt;/div&gt;&lt;div style=&quot;text-align: left; background-color: initial;&quot;&gt;&lt;span style=&quot;background-color: initial;&quot;&gt;void Bat::introduce() {&lt;/span&gt;&lt;/div&gt;&lt;div style=&quot;text-align: left; background-color: initial;&quot;&gt;&amp;nbsp; &amp;nbsp; Creature::introduce();&lt;/div&gt;&lt;div style=&quot;text-align: left; background-color: initial;&quot;&gt;&amp;nbsp; &amp;nbsp; std::cout &amp;lt;&amp;lt; &quot;I am a bat with wingspan &quot; &amp;lt;&amp;lt; wingSpan &amp;lt;&amp;lt; &quot; and flight speed &quot; &amp;lt;&amp;lt; flightSpeed &amp;lt;&amp;lt; &quot;.&quot; &amp;lt;&amp;lt; std::endl;&lt;/div&gt;&lt;div style=&quot;text-align: left; background-color: initial;&quot;&gt;}&lt;/div&gt;&lt;/div&gt;&lt;div style=&quot;text-align: left; background-color: initial;&quot;&gt;&lt;br&gt;&lt;/div&gt;" style="rounded=0;whiteSpace=wrap;html=1;fillColor=#0050ef;fontColor=#ffffff;strokeColor=#001DBC;" parent="1" vertex="1">
          <mxGeometry x="680" y="-148" width="650" height="360" as="geometry" />
        </mxCell>
      </root>
    </mxGraphModel>
  </diagram>
</mxfile>
